<svg width="66" height="66" viewBox="0 0 66 66" fill="none" xmlns="http://www.w3.org/2000/svg">
<path d="M62.4688 0.96875H3.53125C2.11387 0.96875 0.96875 2.11387 0.96875 3.53125V62.4688C0.96875 63.8861 2.11387 65.0312 3.53125 65.0312H62.4688C63.8861 65.0312 65.0312 63.8861 65.0312 62.4688V3.53125C65.0312 2.11387 63.8861 0.96875 62.4688 0.96875ZM55.0695 19.667H49.9525C45.9406 19.667 45.1639 21.5729 45.1639 24.3756V30.5496H54.7412L53.492 40.215H45.1639V65.0312H35.1781V40.223H26.826V30.5496H35.1781V23.4227C35.1781 15.1506 40.2311 10.6422 47.6143 10.6422C51.1537 10.6422 54.1887 10.9064 55.0775 11.0266V19.667H55.0695Z" fill="white"/>
</svg>
