<svg width="68" height="68" viewBox="0 0 68 68" fill="none" xmlns="http://www.w3.org/2000/svg">
<path d="M33.9909 22.6618C27.7478 22.6618 22.6529 27.7568 22.6529 34C22.6529 40.2432 27.7478 45.3382 33.9909 45.3382C40.234 45.3382 45.3288 40.2432 45.3288 34C45.3288 27.7568 40.234 22.6618 33.9909 22.6618ZM67.9962 34C67.9962 29.3048 68.0387 24.6522 67.7751 19.9655C67.5114 14.5218 66.2696 9.69057 62.289 5.70989C58.2998 1.72069 53.4772 0.487357 48.0336 0.223679C43.3385 -0.0399989 38.6859 0.00252998 33.9994 0.00252998C29.3043 0.00252998 24.6517 -0.0399989 19.9651 0.223679C14.5216 0.487357 9.6904 1.7292 5.70978 5.70989C1.72066 9.69908 0.487348 14.5218 0.223675 19.9655C-0.0399981 24.6607 0.00252994 29.3133 0.00252994 34C0.00252994 38.6867 -0.0399981 43.3478 0.223675 48.0345C0.487348 53.4782 1.72916 58.3094 5.70978 62.2901C9.6989 66.2793 14.5216 67.5126 19.9651 67.7763C24.6602 68.04 29.3128 67.9975 33.9994 67.9975C38.6945 67.9975 43.347 68.04 48.0336 67.7763C53.4772 67.5126 58.3083 66.2708 62.289 62.2901C66.2781 58.3009 67.5114 53.4782 67.7751 48.0345C68.0472 43.3478 67.9962 38.6952 67.9962 34ZM33.9909 51.4453C24.337 51.4453 16.5459 43.654 16.5459 34C16.5459 24.346 24.337 16.5547 33.9909 16.5547C43.6447 16.5547 51.4358 24.346 51.4358 34C51.4358 43.654 43.6447 51.4453 33.9909 51.4453ZM52.1503 19.9145C49.8963 19.9145 48.0761 18.0943 48.0761 15.8402C48.0761 13.5862 49.8963 11.766 52.1503 11.766C54.4043 11.766 56.2245 13.5862 56.2245 15.8402C56.2251 16.3755 56.1202 16.9056 55.9157 17.4002C55.7112 17.8948 55.4111 18.3442 55.0327 18.7227C54.6542 19.1011 54.2048 19.4012 53.7102 19.6057C53.2156 19.8102 52.6855 19.9152 52.1503 19.9145Z" fill="white"/>
</svg>
